{
  "accessors": [
    {
      "bufferView": 2,
      "componentType": 5126,
      "count": 8837,
      "max": [
        21.249473571777344,
        2.6978797912597656,
        31.50909996032715
      ],
      "min": [
        -62.316650390625,
        -133.0545654296875,
        16.727935791015625
      ],
      "type": "VEC3"
    },
    {
      "bufferView": 2,
      "byteOffset": 106044,
      "componentType": 5126,
      "count": 8837,
      "max": [
        1.0,
        1.0,
        1.0
      ],
      "min": [
        -1.0,
        -1.0,
        -1.0
      ],
      "type": "VEC3"
    },
    {
      "bufferView": 1,
      "componentType": 5126,
      "count": 8837,
      "max": [
        1.0078125,
        1.0
      ],
      "min": [
        -0.01052093505859375,
        -0.01171875
      ],
      "type": "VEC2"
    },
    {
      "bufferView": 1,
      "byteOffset": 70696,
      "componentType": 5126,
      "count": 8837,
      "max": [
        1.0,
        1.0
      ],
      "min": [
        0.0,
        0.0
      ],
      "type": "VEC2"
    },
    {
      "bufferView": 0,
      "componentType": 5125,
      "count": 14652,
      "type": "SCALAR"
    },
    {
      "bufferView": 2,
      "byteOffset": 212088,
      "componentType": 5126,
      "count": 25422,
      "max": [
        68.31611633300781,
        11.122909545898438,
        30.27870750427246
      ],
      "min": [
        -63.022438049316406,
        -121.38948822021484,
        14.614487648010254
      ],
      "type": "VEC3"
    },
    {
      "bufferView": 2,
      "byteOffset": 517152,
      "componentType": 5126,
      "count": 25422,
      "max": [
        1.0,
        1.0,
        1.0
      ],
      "min": [
        -1.0,
        -1.0,
        -1.0
      ],
      "type": "VEC3"
    },
    {
      "bufferView": 1,
      "byteOffset": 141392,
      "componentType": 5126,
      "count": 25422,
      "max": [
        6.07421875,
        1.03240966796875
      ],
      "min": [
        -5.2578125,
        -0.6396484375
      ],
      "type": "VEC2"
    },
    {
      "bufferView": 1,
      "byteOffset": 344768,
      "componentType": 5126,
      "count": 25422,
      "max": [
        1.0,
        1.0
      ],
      "min": [
        0.0,
        0.0
      ],
      "type": "VEC2"
    },
    {
      "bufferView": 0,
      "byteOffset": 58608,
      "componentType": 5125,
      "count": 50082,
      "type": "SCALAR"
    },
    {
      "bufferView": 2,
      "byteOffset": 822216,
      "componentType": 5126,
      "count": 55446,
      "max": [
        106.37173461914063,
        63.517948150634766,
        7.840114593505859
      ],
      "min": [
        -24.934232711791992,
        -65.4009780883789,
        -15.053420066833496
      ],
      "type": "VEC3"
    },
    {
      "bufferView": 2,
      "byteOffset": 1487568,
      "componentType": 5126,
      "count": 55446,
      "max": [
        1.0,
        1.0,
        1.0
      ],
      "min": [
        -1.0,
        -1.0,
        -1.0
      ],
      "type": "VEC3"
    },
    {
      "bufferView": 1,
      "byteOffset": 548144,
      "componentType": 5126,
      "count": 55446,
      "max": [
        10.3046875,
        2.7158203125
      ],
      "min": [
        -7.94140625,
        -1.517578125
      ],
      "type": "VEC2"
    },
    {
      "bufferView": 1,
      "byteOffset": 991712,
      "componentType": 5126,
      "count": 55446,
      "max": [
        1.0,
        1.0
      ],
      "min": [
        0.0,
        0.0
      ],
      "type": "VEC2"
    },
    {
      "bufferView": 0,
      "byteOffset": 258936,
      "componentType": 5125,
      "count": 97935,
      "type": "SCALAR"
    },
    {
      "bufferView": 2,
      "byteOffset": 2152920,
      "componentType": 5126,
      "count": 53556,
      "max": [
        112.35771942138672,
        79.34123992919922,
        9.219839096069336
      ],
      "min": [
        -24.955873489379883,
        -96.74449157714844,
        -9.00820255279541
      ],
      "type": "VEC3"
    },
    {
      "bufferView": 2,
      "byteOffset": 2795592,
      "componentType": 5126,
      "count": 53556,
      "max": [
        1.0,
        1.0,
        1.0
      ],
      "min": [
        -1.0,
        -1.0,
        -1.0
      ],
      "type": "VEC3"
    },
    {
      "bufferView": 1,
      "byteOffset": 1435280,
      "componentType": 5126,
      "count": 53556,
      "max": [
        16.828125,
        4.4609375
      ],
      "min": [
        -16.40625,
        -4.2109375
      ],
      "type": "VEC2"
    },
    {
      "bufferView": 1,
      "byteOffset": 1863728,
      "componentType": 5126,
      "count": 53556,
      "max": [
        1.0,
        1.0
      ],
      "min": [
        0.0,
        0.0
      ],
      "type": "VEC2"
    },
    {
      "bufferView": 0,
      "byteOffset": 650676,
      "componentType": 5125,
      "count": 102195,
      "type": "SCALAR"
    },
    {
      "bufferView": 2,
      "byteOffset": 3438264,
      "componentType": 5126,
      "count": 15889,
      "max": [
        21.38190460205078,
        -20.24048614501953,
        30.31281280517578
      ],
      "min": [
        -63.029090881347656,
        -112.25143432617188,
        15.085643768310547
      ],
      "type": "VEC3"
    },
    {
      "bufferView": 2,
      "byteOffset": 3628932,
      "componentType": 5126,
      "count": 15889,
      "max": [
        1.0,
        1.0,
        1.0
      ],
      "min": [
        -1.0,
        -1.0,
        -1.0
      ],
      "type": "VEC3"
    },
    {
      "bufferView": 1,
      "byteOffset": 2292176,
      "componentType": 5126,
      "count": 15889,
      "max": [
        1.0126953125,
        1.0072441101074219
      ],
      "min": [
        -0.00562286376953125,
        -0.00390625
      ],
      "type": "VEC2"
    },
    {
      "bufferView": 1,
      "byteOffset": 2419288,
      "componentType": 5126,
      "count": 15889,
      "max": [
        1.0,
        1.0
      ],
      "min": [
        0.0,
        0.0
      ],
      "type": "VEC2"
    },
    {
      "bufferView": 0,
      "byteOffset": 1059456,
      "componentType": 5125,
      "count": 27261,
      "type": "SCALAR"
    },
    {
      "bufferView": 2,
      "byteOffset": 3819600,
      "componentType": 5126,
      "count": 30,
      "max": [
        23.928390502929688,
        71.53316497802734,
        2.161018133163452
      ],
      "min": [
        -23.928390502929688,
        -71.53316497802734,
        -2.161015510559082
      ],
      "type": "VEC3"
    },
    {
      "bufferView": 2,
      "byteOffset": 3819960,
      "componentType": 5126,
      "count": 30,
      "max": [
        0.0,
        0.3937985599040985,
        -0.9191967248916626
      ],
      "min": [
        0.0,
        0.0,
        -1.0
      ],
      "type": "VEC3"
    },
    {
      "bufferView": 1,
      "byteOffset": 2546400,
      "componentType": 5126,
      "count": 30,
      "max": [
        0.3388671875,
        0.337890625
      ],
      "min": [
        0.3154296875,
        0.31201171875
      ],
      "type": "VEC2"
    },
    {
      "bufferView": 0,
      "byteOffset": 1168500,
      "componentType": 5125,
      "count": 66,
      "type": "SCALAR"
    }
  ],
  "asset": {
    "extras": {
      "author": "frostychaos144 (https://sketchfab.com/frostychaos144)",
      "license": "CC-BY-4.0 (http://creativecommons.org/licenses/by/4.0/)",
      "source": "https://sketchfab.com/3d-models/dune-ba31044e1d3b4503a64fe511c2694f9b",
      "title": "Dune"
    },
    "generator": "Sketchfab-16.59.0",
    "version": "2.0"
  },
  "bufferViews": [
    {
      "buffer": 0,
      "byteLength": 1168764,
      "name": "floatBufferViews",
      "target": 34963
    },
    {
      "buffer": 0,
      "byteLength": 2546640,
      "byteOffset": 1168764,
      "byteStride": 8,
      "name": "floatBufferViews",
      "target": 34962
    },
    {
      "buffer": 0,
      "byteLength": 3820320,
      "byteOffset": 3715404,
      "byteStride": 12,
      "name": "floatBufferViews",
      "target": 34962
    }
  ],
  "buffers": [
    {
      "byteLength": 7535724,
      "uri": "scene.bin"
    }
  ],
  "extensionsUsed": [
    "KHR_materials_specular"
  ],
  "images": [
    {
      "uri": "textures/Dune_Decals_baseColor.png"
    },
    {
      "uri": "textures/Dune_Decals_specularf0.png"
    },
    {
      "uri": "textures/5_Atlas_trim_baseColor.png"
    },
    {
      "uri": "textures/8_Wall_plaster_baseColor.png"
    },
    {
      "uri": "textures/6_Wall_0_baseColor.png"
    },
    {
      "uri": "textures/Dune_Mask_2sided_baseColor.png"
    },
    {
      "uri": "textures/water_baseColor.png"
    }
  ],
  "materials": [
    {
      "alphaMode": "BLEND",
      "doubleSided": true,
      "extensions": {
        "KHR_materials_specular": {
          "specularColorFactor": [
            1.0,
            1.0,
            1.0
          ],
          "specularFactor": 1.0,
          "specularTexture": {
            "index": 1,
            "texCoord": 1
          }
        }
      },
      "name": "Dune_Decals",
      "pbrMetallicRoughness": {
        "baseColorTexture": {
          "index": 0
        },
        "roughnessFactor": 0.552786
      }
    },
    {
      "doubleSided": true,
      "extensions": {
        "KHR_materials_specular": {
          "specularColorFactor": [
            1.0,
            1.0,
            1.0
          ],
          "specularFactor": 1.0
        }
      },
      "name": "5_Atlas_trim",
      "pbrMetallicRoughness": {
        "baseColorTexture": {
          "index": 2
        },
        "roughnessFactor": 0.552786
      }
    },
    {
      "doubleSided": true,
      "extensions": {
        "KHR_materials_specular": {
          "specularColorFactor": [
            1.0,
            1.0,
            1.0
          ],
          "specularFactor": 1.0
        }
      },
      "name": "8_Wall_plaster",
      "pbrMetallicRoughness": {
        "baseColorTexture": {
          "index": 3
        },
        "roughnessFactor": 0.552786
      }
    },
    {
      "doubleSided": true,
      "extensions": {
        "KHR_materials_specular": {
          "specularColorFactor": [
            1.0,
            1.0,
            1.0
          ],
          "specularFactor": 1.0
        }
      },
      "name": "6_Wall_0",
      "pbrMetallicRoughness": {
        "baseColorTexture": {
          "index": 4
        },
        "roughnessFactor": 0.552786
      }
    },
    {
      "alphaMode": "BLEND",
      "doubleSided": true,
      "extensions": {
        "KHR_materials_specular": {
          "specularColorFactor": [
            1.0,
            1.0,
            1.0
          ],
          "specularFactor": 1.0
        }
      },
      "name": "Dune_Mask_2sided",
      "pbrMetallicRoughness": {
        "baseColorTexture": {
          "index": 5
        },
        "roughnessFactor": 0.552786
      }
    },
    {
      "alphaMode": "BLEND",
      "doubleSided": true,
      "extensions": {
        "KHR_materials_specular": {
          "specularColorFactor": [
            1.0,
            1.0,
            1.0
          ],
          "specularFactor": 1.0
        }
      },
      "name": "water",
      "pbrMetallicRoughness": {
        "baseColorTexture": {
          "index": 6
        },
        "roughnessFactor": 0.552786
      }
    }
  ],
  "meshes": [
    {
      "name": "Object_0",
      "primitives": [
        {
          "attributes": {
            "NORMAL": 1,
            "POSITION": 0,
            "TEXCOORD_0": 2,
            "TEXCOORD_1": 3
          },
          "indices": 4,
          "material": 0,
          "mode": 4
        }
      ]
    },
    {
      "name": "Object_1",
      "primitives": [
        {
          "attributes": {
            "NORMAL": 6,
            "POSITION": 5,
            "TEXCOORD_0": 7,
            "TEXCOORD_1": 8
          },
          "indices": 9,
          "material": 1,
          "mode": 4
        }
      ]
    },
    {
      "name": "Object_2",
      "primitives": [
        {
          "attributes": {
            "NORMAL": 11,
            "POSITION": 10,
            "TEXCOORD_0": 12,
            "TEXCOORD_1": 13
          },
          "indices": 14,
          "material": 2,
          "mode": 4
        }
      ]
    },
    {
      "name": "Object_3",
      "primitives": [
        {
          "attributes": {
            "NORMAL": 16,
            "POSITION": 15,
            "TEXCOORD_0": 17,
            "TEXCOORD_1": 18
          },
          "indices": 19,
          "material": 3,
          "mode": 4
        }
      ]
    },
    {
      "name": "Object_4",
      "primitives": [
        {
          "attributes": {
            "NORMAL": 21,
            "POSITION": 20,
            "TEXCOORD_0": 22,
            "TEXCOORD_1": 23
          },
          "indices": 24,
          "material": 4,
          "mode": 4
        }
      ]
    },
    {
      "name": "Object_5",
      "primitives": [
        {
          "attributes": {
            "NORMAL": 26,
            "POSITION": 25,
            "TEXCOORD_0": 27
          },
          "indices": 28,
          "material": 5,
          "mode": 4
        }
      ]
    }
  ],
  "nodes": [
    {
      "children": [
        1
      ],
      "matrix": [
        1.0,
        0.0,
        0.0,
        0.0,
        0.0,
        2.220446049250313e-16,
        -1.0,
        0.0,
        0.0,
        1.0,
        2.220446049250313e-16,
        0.0,
        0.0,
        0.0,
        0.0,
        1.0
      ],
      "name": "Sketchfab_model"
    },
    {
      "children": [
        2
      ],
      "name": "root"
    },
    {
      "children": [
        3
      ],
      "matrix": [
        1.0,
        0.0,
        0.0,
        0.0,
        0.0,
        2.220446049250313e-16,
        1.0,
        0.0,
        0.0,
        -1.0,
        2.220446049250313e-16,
        0.0,
        0.0,
        0.0,
        0.0,
        1.0
      ],
      "name": "GLTF_SceneRootNode"
    },
    {
      "children": [
        4,
        6,
        8,
        10,
        12,
        14
      ],
      "matrix": [
        0.009999999776482582,
        0.0,
        0.0,
        0.0,
        0.0,
        0.0,
        0.009999999776482582,
        0.0,
        0.0,
        -0.009999999776482582,
        0.0,
        0.0,
        0.0,
        0.0,
        0.0,
        1.0
      ],
      "name": "Dune_6"
    },
    {
      "children": [
        5
      ],
      "name": "Decals_0"
    },
    {
      "mesh": 0,
      "name": "Object_5"
    },
    {
      "children": [
        7
      ],
      "name": "mesh1_1"
    },
    {
      "mesh": 1,
      "name": "Object_7"
    },
    {
      "children": [
        9
      ],
      "matrix": [
        1.0,
        0.0,
        0.0,
        0.0,
        0.0,
        1.0,
        0.0,
        0.0,
        0.0,
        0.0,
        1.0,
        0.0,
        -38.14659881591797,
        -52.39498519897461,
        24.481359481811523,
        1.0
      ],
      "name": "mesh2_2"
    },
    {
      "mesh": 2,
      "name": "Object_9"
    },
    {
      "children": [
        11
      ],
      "matrix": [
        1.0,
        0.0,
        0.0,
        0.0,
        0.0,
        1.0,
        0.0,
        0.0,
        0.0,
        0.0,
        1.0,
        0.0,
        -38.14659881591797,
        -52.39498519897461,
        24.481359481811523,
        1.0
      ],
      "name": "mesh3_3"
    },
    {
      "mesh": 3,
      "name": "Object_11"
    },
    {
      "children": [
        13
      ],
      "name": "plants_4"
    },
    {
      "mesh": 4,
      "name": "Object_13"
    },
    {
      "children": [
        15
      ],
      "matrix": [
        1.0,
        0.0,
        0.0,
        0.0,
        0.0,
        1.0,
        0.0,
        0.0,
        0.0,
        0.0,
        1.0,
        0.0,
        -4.970346450805664,
        -58.96530532836914,
        29.214122772216797,
        1.0
      ],
      "name": "water_5"
    },
    {
      "mesh": 5,
      "name": "Object_15"
    }
  ],
  "samplers": [
    {
      "magFilter": 9729,
      "minFilter": 9987,
      "wrapS": 10497,
      "wrapT": 10497
    }
  ],
  "scene": 0,
  "scenes": [
    {
      "name": "Sketchfab_Scene",
      "nodes": [
        0
      ]
    }
  ],
  "textures": [
    {
      "sampler": 0,
      "source": 0
    },
    {
      "sampler": 0,
      "source": 1
    },
    {
      "sampler": 0,
      "source": 2
    },
    {
      "sampler": 0,
      "source": 3
    },
    {
      "sampler": 0,
      "source": 4
    },
    {
      "sampler": 0,
      "source": 5
    },
    {
      "sampler": 0,
      "source": 6
    }
  ]
}
